<svg width="960" height="960" viewBox="0 0 960 960" fill="none" xmlns="http://www.w3.org/2000/svg">
<path d="M431.286 446.42C684.681 -503.601 -208.158 438.675 49.0556 633.557C52.462 636.138 57.4579 635.343 60.2998 632.123C86.4467 602.494 131.19 596.805 163.719 620.17C196.141 643.456 204.929 687.345 185.253 721.392C183.026 725.245 183.792 730.262 187.391 732.839L275.402 795.868C278.969 798.422 283.905 797.565 286.834 794.27C313.007 764.827 357.614 759.222 390.065 782.53C422.501 805.827 431.283 849.745 411.572 883.797C409.353 887.632 410.206 892.728 413.92 895.099C629.186 1032.49 1055.07 431.958 932.693 303.465C825.562 190.98 522.76 398.961 443.718 456.578C437.5 461.11 429.301 453.862 431.286 446.42Z" fill="#FF0000"/>
<path d="M431.286 446.42C684.681 -503.601 -208.158 438.675 49.0556 633.557C52.462 636.138 57.4579 635.343 60.2998 632.123C86.4467 602.494 131.19 596.805 163.719 620.17C196.141 643.456 204.929 687.345 185.253 721.392C183.026 725.245 183.792 730.262 187.391 732.839L275.402 795.868C278.969 798.422 283.905 797.565 286.834 794.27C313.007 764.827 357.614 759.222 390.065 782.53C422.501 805.827 431.283 849.745 411.572 883.797C409.353 887.632 410.206 892.728 413.92 895.099C629.186 1032.49 1055.07 431.958 932.693 303.465C825.562 190.98 522.76 398.961 443.718 456.578C437.5 461.11 429.301 453.862 431.286 446.42Z" fill="url(#paint0_linear_34_206)"/>
<path d="M431.286 446.42C684.681 -503.601 -208.158 438.675 49.0556 633.557C52.462 636.138 57.4579 635.343 60.2998 632.123C86.4467 602.494 131.19 596.805 163.719 620.17C196.141 643.456 204.929 687.345 185.253 721.392C183.026 725.245 183.792 730.262 187.391 732.839L275.402 795.868C278.969 798.422 283.905 797.565 286.834 794.27C313.007 764.827 357.614 759.222 390.065 782.53C422.501 805.827 431.283 849.745 411.572 883.797C409.353 887.632 410.206 892.728 413.92 895.099C629.186 1032.49 1055.07 431.958 932.693 303.465C825.562 190.98 522.76 398.961 443.718 456.578C437.5 461.11 429.301 453.862 431.286 446.42Z" stroke="black" stroke-width="2"/>
<path d="M373.284 560.032C376.02 562.719 380.593 563.534 386.574 562.918C392.579 562.301 400.137 560.228 408.995 556.967C426.716 550.444 449.751 539.124 476.184 524.991C502.451 510.947 532.093 494.113 563.241 476.425L563.849 476.08C595.221 458.264 628.107 439.595 660.61 422.037C725.632 386.914 789.062 356.275 835.727 345.82C859.074 340.589 878.108 340.439 891.039 347.186C903.901 353.896 910.871 367.517 909.895 390.245C907.938 435.795 886.017 487.08 853.623 538.101C821.235 589.112 778.41 639.809 734.714 684.174C691.019 728.539 646.465 766.56 610.63 792.22C592.71 805.051 576.984 814.782 564.644 820.671C558.472 823.616 553.166 825.591 548.867 826.518C544.547 827.449 541.344 827.3 539.295 826.129C537.329 825.007 536.476 822.762 536.79 819.265C537.104 815.769 538.579 811.17 541.085 805.598C546.091 794.464 555.132 779.611 566.847 762.253C587.09 732.258 615.264 694.859 644.247 656.385C648.802 650.338 653.378 644.264 657.946 638.188C691.567 593.468 724.774 548.642 746.496 513.558C757.353 496.021 765.363 480.885 769.112 469.396C770.986 463.656 771.813 458.777 771.366 454.943C770.916 451.078 769.164 448.248 765.897 446.726C762.703 445.238 758.412 444.825 753.214 445.296C748.008 445.769 741.84 447.134 734.856 449.254C720.889 453.494 703.594 460.773 684.081 470.053C647.74 487.338 603.642 511.601 558.917 536.209C555.613 538.027 552.305 539.847 548.996 541.667C500.899 568.114 452.683 594.396 413.138 612.324C393.364 621.288 375.778 628.155 361.469 631.911C354.315 633.789 347.996 634.885 342.643 635.081C337.284 635.278 332.933 634.572 329.683 632.885C323.19 629.513 318.904 620.988 316.417 608.368C313.937 595.783 313.278 579.288 313.892 560.217C315.121 522.079 321.441 473.753 328.39 426.05C330.151 413.959 331.953 401.908 333.723 390.074C338.932 355.233 343.86 322.272 346.646 295.714C348.512 277.928 349.42 262.983 348.802 252.254C348.494 246.893 347.802 242.548 346.639 239.418C345.481 236.299 343.802 234.259 341.442 233.765C339.22 233.301 336.639 233.6 333.758 234.531C330.874 235.463 327.656 237.039 324.141 239.17C317.112 243.431 308.839 249.944 299.599 258.078C282.325 273.286 261.604 294.219 239.207 316.845C237.641 318.427 236.067 320.017 234.485 321.614C210.273 346.063 184.273 372.137 158.624 394.936C132.97 417.738 107.696 437.237 84.9387 448.552C82.1041 449.962 79.6847 450.925 77.6566 451.478C75.6234 452.032 74.0157 452.164 72.7898 451.946C71.5819 451.731 70.7459 451.177 70.2053 450.326C69.653 449.458 69.3748 448.225 69.4101 446.601C69.4809 443.347 70.8046 438.731 73.2782 432.935C75.746 427.152 79.3363 420.244 83.8932 412.419C102.124 381.117 135.738 335.309 174.445 288.681C213.151 242.057 256.929 194.637 295.477 160.109C314.753 142.843 332.706 128.814 348.053 119.719C355.727 115.171 362.734 111.865 368.918 110.002C375.106 108.138 380.429 107.73 384.76 108.925C393.416 111.313 399.206 119.358 402.713 131.957C406.215 144.544 407.395 161.537 406.934 181.556C406.01 221.587 398.527 273.557 390.093 326.211C388.222 337.893 386.304 349.609 384.401 361.235C377.73 401.991 371.239 441.638 367.582 474.842C365.231 496.179 364.048 514.88 364.741 529.52C365.088 536.839 365.905 543.161 367.287 548.297C368.668 553.427 370.625 557.419 373.284 560.032Z" fill="#E5E1F3" stroke="#BBBBBB"/>
<defs>
<linearGradient id="paint0_linear_34_206" x1="340.462" y1="41.3446" x2="626.31" y2="877.234" gradientUnits="userSpaceOnUse">
<stop stop-color="#E6E1F3" stop-opacity="0"/>
<stop offset="0.0001" stop-color="#C8A6EA" stop-opacity="0.94"/>
<stop offset="1" stop-color="#FC9CFA" stop-opacity="0.25"/>
</linearGradient>
</defs>
</svg>
