<svg width="824" height="817" viewBox="0 0 824 817" fill="none" xmlns="http://www.w3.org/2000/svg">
<path d="M385.529 385.17C519.302 -140.538 22.6293 383.578 161.195 499.827C164.49 502.591 169.457 501.718 172.531 498.71C187.712 483.862 211.816 481.623 229.633 494.464C247.364 507.242 252.897 530.651 243.799 549.7C241.893 553.691 242.63 558.677 246.221 561.258L291.392 593.718C294.976 596.293 299.927 595.41 303.102 592.344C318.294 577.675 342.262 575.514 359.999 588.297C377.744 601.086 383.271 624.523 374.143 643.58C372.241 647.55 373.015 652.606 376.823 654.816C501.612 727.243 740.664 387.66 670.633 314.094C612.14 252.65 453.533 355.952 398.389 395.085C392.126 399.529 383.635 392.612 385.529 385.17Z" fill="#969696" stroke="black" stroke-width="2"/>
<path d="M349.479 459.349C351.116 460.961 353.822 461.417 357.267 461.055C360.736 460.69 365.089 459.483 370.176 457.597C380.355 453.821 393.582 447.282 408.749 439.127C423.821 431.023 440.831 421.312 458.701 411.11L459.053 410.909C477.054 400.632 495.922 389.863 514.568 379.735C551.877 359.469 588.242 341.8 614.968 335.746C628.345 332.715 639.19 332.624 646.523 336.452C653.787 340.244 657.752 347.969 657.17 360.991C656.002 387.128 643.406 416.601 624.791 445.959C606.182 475.306 581.592 504.489 556.506 530.037C531.421 555.585 505.852 577.485 485.296 592.268C475.016 599.662 466.003 605.265 458.94 608.657C455.406 610.353 452.38 611.487 449.938 612.019C447.474 612.557 445.706 612.459 444.604 611.83C443.586 611.248 443.102 610.066 443.282 608.09C443.462 606.115 444.302 603.494 445.741 600.294C448.614 593.905 453.804 585.368 460.536 575.377C472.167 558.115 488.352 536.587 505.006 514.434C507.624 510.952 510.253 507.455 512.878 503.956C532.196 478.209 551.283 452.393 563.777 432.188C570.02 422.091 574.639 413.362 576.808 406.727C577.892 403.414 578.382 400.574 578.125 398.325C577.864 396.047 576.829 394.347 574.877 393.438C572.998 392.563 570.494 392.332 567.498 392.61C564.493 392.89 560.942 393.686 556.929 394.914C548.903 397.372 538.971 401.58 527.774 406.939C506.919 416.919 481.612 430.919 455.952 445.115C454.056 446.164 452.157 447.214 450.259 448.264C422.66 463.523 395.004 478.682 372.327 489.028C360.987 494.201 350.913 498.163 342.725 500.333C338.631 501.418 335.024 502.051 331.977 502.169C328.924 502.287 326.473 501.887 324.658 500.944C321.035 499.062 318.603 494.256 317.192 487.01C315.789 479.801 315.428 470.337 315.8 459.376C316.545 437.461 320.217 409.679 324.251 382.244C325.274 375.293 326.319 368.364 327.346 361.559C330.369 341.52 333.23 322.557 334.856 307.279C335.945 297.049 336.483 288.441 336.139 282.255C335.968 279.166 335.575 276.644 334.9 274.816C334.231 273 333.232 271.74 331.77 271.436C330.447 271.161 328.927 271.345 327.255 271.89C325.58 272.436 323.718 273.355 321.693 274.589C317.643 277.056 312.884 280.819 307.576 285.509C297.653 294.276 285.749 306.339 272.889 319.37C271.989 320.282 271.084 321.198 270.175 322.119C256.271 336.202 241.345 351.217 226.625 364.348C211.9 377.483 197.409 388.705 184.379 395.223C182.76 396.032 181.386 396.582 180.241 396.897C179.091 397.214 178.204 397.284 177.545 397.167C176.905 397.054 176.482 396.767 176.209 396.336C175.925 395.886 175.769 395.224 175.791 394.313C175.834 392.484 176.583 389.86 178.005 386.529C179.421 383.213 181.482 379.245 184.1 374.746C194.574 356.743 213.882 330.38 236.115 303.533C258.346 276.689 283.482 249.386 305.603 229.502C316.666 219.558 326.959 211.483 335.749 206.247C340.143 203.629 344.147 201.73 347.671 200.659C351.2 199.587 354.207 199.357 356.633 200.024C361.481 201.358 364.759 205.883 366.749 213.098C368.735 220.301 369.394 230.045 369.108 241.549C368.536 264.55 364.194 294.425 359.303 324.709C358.218 331.426 357.107 338.162 356.004 344.848C352.136 368.289 348.372 391.099 346.24 410.2C344.869 422.474 344.169 433.24 344.552 441.673C344.743 445.89 345.206 449.54 345.998 452.511C346.789 455.477 347.919 457.811 349.479 459.349Z" fill="#BFBFBF" stroke="#BBBBBB"/>
<g filter="url(#filter0_d_40_13)">
<path d="M185.888 786.024C178.976 786.024 172.618 784.915 166.816 782.696C161.013 780.392 155.978 777.192 151.712 773.096C147.445 768.915 144.117 764.051 141.728 758.504C139.338 752.957 138.144 746.856 138.144 740.2C138.144 733.544 139.338 727.443 141.728 721.896C144.117 716.349 147.445 711.528 151.712 707.432C156.064 703.251 161.141 700.051 166.944 697.832C172.746 695.528 179.146 694.376 186.144 694.376C193.226 694.376 199.712 695.528 205.6 697.832C211.488 700.136 216.48 703.592 220.576 708.2L212.64 716.136C208.97 712.552 204.96 709.949 200.608 708.328C196.341 706.621 191.69 705.768 186.656 705.768C181.536 705.768 176.757 706.621 172.32 708.328C167.968 710.035 164.17 712.424 160.928 715.496C157.77 718.568 155.296 722.237 153.504 726.504C151.797 730.685 150.944 735.251 150.944 740.2C150.944 745.064 151.797 749.629 153.504 753.896C155.296 758.077 157.77 761.747 160.928 764.904C164.17 767.976 167.968 770.365 172.32 772.072C176.672 773.779 181.408 774.632 186.528 774.632C191.306 774.632 195.872 773.907 200.224 772.456C204.661 770.92 208.757 768.403 212.512 764.904L219.808 774.632C215.37 778.387 210.165 781.245 204.192 783.208C198.304 785.085 192.202 786.024 185.888 786.024ZM207.52 772.968L207.52 739.688L219.808 739.688L219.808 774.632L207.52 772.968ZM242.523 785L242.523 690.024L254.811 690.024L254.811 785L242.523 785ZM307.329 785.768C300.502 785.768 294.443 784.275 289.153 781.288C283.862 778.301 279.681 774.205 276.609 769C273.537 763.709 272.001 757.736 272.001 751.08C272.001 744.339 273.537 738.365 276.609 733.16C279.681 727.955 283.862 723.901 289.153 721C294.443 718.013 300.502 716.52 307.329 716.52C314.07 716.52 320.086 718.013 325.377 721C330.753 723.901 334.934 727.955 337.921 733.16C340.993 738.28 342.529 744.253 342.529 751.08C342.529 757.821 340.993 763.795 337.921 769C334.934 774.205 330.753 778.301 325.377 781.288C320.086 784.275 314.07 785.768 307.329 785.768ZM307.329 775.016C311.681 775.016 315.563 774.035 318.977 772.072C322.475 770.109 325.206 767.336 327.169 763.752C329.131 760.083 330.113 755.859 330.113 751.08C330.113 746.216 329.131 742.035 327.169 738.536C325.206 734.952 322.475 732.179 318.977 730.216C315.563 728.253 311.681 727.272 307.329 727.272C302.977 727.272 299.094 728.253 295.681 730.216C292.267 732.179 289.537 734.952 287.489 738.536C285.441 742.035 284.417 746.216 284.417 751.08C284.417 755.859 285.441 760.083 287.489 763.752C289.537 767.336 292.267 770.109 295.681 772.072C299.094 774.035 302.977 775.016 307.329 775.016ZM371.984 785L346.768 717.16L358.416 717.16L380.816 778.6L375.312 778.6L398.608 717.16L408.976 717.16L431.76 778.6L426.384 778.6L449.296 717.16L460.304 717.16L434.96 785L423.184 785L401.808 728.936L405.392 728.936L383.76 785L371.984 785ZM500.421 785L460.997 695.4L474.821 695.4L511.045 778.088L503.109 778.088L539.589 695.4L552.389 695.4L513.093 785L500.421 785ZM562.023 785L562.023 717.16L574.311 717.16L574.311 785L562.023 785ZM568.167 704.104C565.777 704.104 563.772 703.336 562.151 701.8C560.615 700.264 559.847 698.387 559.847 696.168C559.847 693.864 560.615 691.944 562.151 690.408C563.772 688.872 565.777 688.104 568.167 688.104C570.556 688.104 572.519 688.872 574.055 690.408C575.676 691.859 576.487 693.693 576.487 695.912C576.487 698.216 575.719 700.179 574.183 701.8C572.647 703.336 570.641 704.104 568.167 704.104ZM627.981 785.768C620.727 785.768 614.327 784.275 608.781 781.288C603.319 778.301 599.053 774.205 595.981 769C592.994 763.795 591.501 757.821 591.501 751.08C591.501 744.339 592.951 738.365 595.853 733.16C598.839 727.955 602.893 723.901 608.013 721C613.218 718.013 619.063 716.52 625.549 716.52C632.119 716.52 637.922 717.971 642.957 720.872C647.991 723.773 651.917 727.869 654.733 733.16C657.634 738.365 659.085 744.467 659.085 751.464C659.085 751.976 659.042 752.573 658.957 753.256C658.957 753.939 658.914 754.579 658.829 755.176L601.101 755.176L601.101 746.344L652.429 746.344L647.437 749.416C647.522 745.064 646.626 741.181 644.749 737.768C642.871 734.355 640.269 731.709 636.941 729.832C633.698 727.869 629.901 726.888 625.549 726.888C621.282 726.888 617.485 727.869 614.157 729.832C610.829 731.709 608.226 734.397 606.349 737.896C604.471 741.309 603.533 745.235 603.533 749.672L603.533 751.72C603.533 756.243 604.557 760.296 606.605 763.88C608.738 767.379 611.682 770.109 615.437 772.072C619.191 774.035 623.501 775.016 628.365 775.016C632.375 775.016 636.002 774.333 639.245 772.968C642.573 771.603 645.474 769.555 647.949 766.824L654.733 774.76C651.661 778.344 647.821 781.075 643.213 782.952C638.69 784.829 633.613 785.768 627.981 785.768Z" fill="#515151"/>
</g>
<defs>
<filter id="filter0_d_40_13" x="129.244" y="683.204" width="538.741" height="115.72" filterUnits="userSpaceOnUse" color-interpolation-filters="sRGB">
<feFlood flood-opacity="0" result="BackgroundImageFix"/>
<feColorMatrix in="SourceAlpha" type="matrix" values="0 0 0 0 0 0 0 0 0 0 0 0 0 0 0 0 0 0 127 0" result="hardAlpha"/>
<feOffset dy="4"/>
<feGaussianBlur stdDeviation="4.45"/>
<feComposite in2="hardAlpha" operator="out"/>
<feColorMatrix type="matrix" values="0 0 0 0 0.831373 0 0 0 0 0.937255 0 0 0 0 0.87451 0 0 0 0.67 0"/>
<feBlend mode="normal" in2="BackgroundImageFix" result="effect1_dropShadow_40_13"/>
<feBlend mode="normal" in="SourceGraphic" in2="effect1_dropShadow_40_13" result="shape"/>
</filter>
</defs>
</svg>
