<svg width="1077" height="1077" viewBox="0 0 1077 1077" fill="none" xmlns="http://www.w3.org/2000/svg">
<path d="M0 538.5C0 241.095 241.095 0 538.5 0V0C835.905 0 1077 241.095 1077 538.5V538.5C1077 835.905 835.905 1077 538.5 1077V1077C241.095 1077 0 835.905 0 538.5V538.5Z" fill="#DCDCDC"/>
<path d="M525.53 436.17C659.303 -89.5378 162.63 434.578 301.196 550.827C304.491 553.591 309.458 552.718 312.532 549.71C327.713 534.862 351.817 532.623 369.634 545.464C387.365 558.242 392.898 581.651 383.8 600.7C381.894 604.691 382.631 609.677 386.222 612.258L431.393 644.718C434.977 647.293 439.928 646.41 443.103 643.344C458.295 628.675 482.263 626.514 500 639.297C517.745 652.086 523.272 675.523 514.144 694.58C512.242 698.55 513.016 703.606 516.824 705.816C641.613 778.243 880.665 438.66 810.634 365.094C752.141 303.65 593.534 406.952 538.39 446.085C532.127 450.529 523.636 443.612 525.53 436.17Z" fill="#969696" stroke="black" stroke-width="2"/>
<path d="M489.479 510.349C491.116 511.961 493.822 512.417 497.267 512.055C500.736 511.69 505.089 510.483 510.176 508.597C520.355 504.821 533.582 498.282 548.749 490.127C563.821 482.023 580.831 472.312 598.701 462.11L599.053 461.909C617.054 451.632 635.922 440.863 654.568 430.735C691.877 410.469 728.242 392.8 754.968 386.746C768.345 383.715 779.19 383.624 786.523 387.452C793.787 391.244 797.752 398.969 797.17 411.991C796.002 438.128 783.406 467.601 764.791 496.959C746.182 526.306 721.592 555.489 696.506 581.037C671.421 606.585 645.852 628.485 625.296 643.268C615.016 650.662 606.003 656.265 598.94 659.657C595.406 661.353 592.38 662.487 589.938 663.019C587.474 663.557 585.706 663.459 584.604 662.83C583.586 662.248 583.102 661.066 583.282 659.09C583.462 657.115 584.302 654.494 585.741 651.294C588.614 644.905 593.804 636.368 600.536 626.377C612.167 609.115 628.352 587.587 645.006 565.434C647.624 561.952 650.253 558.455 652.878 554.956C672.196 529.209 691.283 503.393 703.777 483.188C710.02 473.091 714.639 464.362 716.808 457.727C717.892 454.414 718.382 451.574 718.125 449.325C717.864 447.047 716.829 445.347 714.877 444.438C712.998 443.563 710.494 443.332 707.498 443.61C704.493 443.89 700.942 444.686 696.929 445.914C688.903 448.372 678.971 452.58 667.774 457.939C646.919 467.919 621.612 481.919 595.952 496.115C594.056 497.164 592.157 498.214 590.259 499.264C562.66 514.523 535.004 529.682 512.327 540.028C500.987 545.201 490.913 549.163 482.725 551.333C478.631 552.418 475.024 553.051 471.977 553.169C468.924 553.287 466.473 552.887 464.658 551.944C461.035 550.062 458.603 545.256 457.192 538.01C455.789 530.801 455.428 521.337 455.8 510.376C456.545 488.461 460.217 460.679 464.251 433.244C465.274 426.293 466.319 419.364 467.346 412.559C470.369 392.52 473.23 373.557 474.856 358.279C475.945 348.049 476.483 339.441 476.139 333.255C475.968 330.166 475.575 327.644 474.9 325.816C474.231 324 473.232 322.74 471.77 322.436C470.447 322.161 468.927 322.345 467.255 322.89C465.58 323.436 463.718 324.355 461.693 325.589C457.643 328.056 452.884 331.819 447.576 336.509C437.653 345.276 425.749 357.339 412.889 370.37C411.989 371.282 411.084 372.198 410.175 373.119C396.271 387.202 381.345 402.217 366.625 415.348C351.9 428.483 337.409 439.705 324.379 446.223C322.76 447.032 321.386 447.582 320.241 447.897C319.091 448.214 318.204 448.284 317.545 448.167C316.905 448.054 316.482 447.767 316.209 447.336C315.925 446.886 315.769 446.224 315.791 445.313C315.834 443.484 316.583 440.86 318.005 437.529C319.421 434.213 321.482 430.245 324.1 425.746C334.574 407.743 353.882 381.38 376.115 354.533C398.346 327.689 423.482 300.386 445.603 280.502C456.666 270.558 466.959 262.483 475.749 257.247C480.143 254.629 484.147 252.73 487.671 251.659C491.2 250.587 494.207 250.357 496.633 251.024C501.481 252.358 504.759 256.883 506.749 264.098C508.735 271.301 509.394 281.045 509.108 292.549C508.536 315.55 504.194 345.425 499.303 375.709C498.218 382.426 497.107 389.162 496.004 395.848C492.136 419.289 488.372 442.099 486.24 461.2C484.869 473.474 484.169 484.24 484.552 492.673C484.743 496.89 485.206 500.54 485.998 503.511C486.789 506.477 487.919 508.811 489.479 510.349Z" fill="#BFBFBF" stroke="#BBBBBB"/>
<g filter="url(#filter0_d_49_4)">
<path d="M325.888 837.024C318.976 837.024 312.619 835.915 306.816 833.696C301.013 831.392 295.979 828.192 291.712 824.096C287.445 819.915 284.117 815.051 281.728 809.504C279.339 803.957 278.144 797.856 278.144 791.2C278.144 784.544 279.339 778.443 281.728 772.896C284.117 767.349 287.445 762.528 291.712 758.432C296.064 754.251 301.141 751.051 306.944 748.832C312.747 746.528 319.147 745.376 326.144 745.376C333.227 745.376 339.712 746.528 345.6 748.832C351.488 751.136 356.48 754.592 360.576 759.2L352.64 767.136C348.971 763.552 344.96 760.949 340.608 759.328C336.341 757.621 331.691 756.768 326.656 756.768C321.536 756.768 316.757 757.621 312.32 759.328C307.968 761.035 304.171 763.424 300.928 766.496C297.771 769.568 295.296 773.237 293.504 777.504C291.797 781.685 290.944 786.251 290.944 791.2C290.944 796.064 291.797 800.629 293.504 804.896C295.296 809.077 297.771 812.747 300.928 815.904C304.171 818.976 307.968 821.365 312.32 823.072C316.672 824.779 321.408 825.632 326.528 825.632C331.307 825.632 335.872 824.907 340.224 823.456C344.661 821.92 348.757 819.403 352.512 815.904L359.808 825.632C355.371 829.387 350.165 832.245 344.192 834.208C338.304 836.085 332.203 837.024 325.888 837.024ZM347.52 823.968L347.52 790.688L359.808 790.688L359.808 825.632L347.52 823.968ZM382.523 836L382.523 741.024L394.811 741.024L394.811 836L382.523 836ZM447.329 836.768C440.502 836.768 434.444 835.275 429.153 832.288C423.862 829.301 419.681 825.205 416.609 820C413.537 814.709 412.001 808.736 412.001 802.08C412.001 795.339 413.537 789.365 416.609 784.16C419.681 778.955 423.862 774.901 429.153 772C434.444 769.013 440.502 767.52 447.329 767.52C454.07 767.52 460.086 769.013 465.377 772C470.753 774.901 474.934 778.955 477.921 784.16C480.993 789.28 482.529 795.253 482.529 802.08C482.529 808.821 480.993 814.795 477.921 820C474.934 825.205 470.753 829.301 465.377 832.288C460.086 835.275 454.07 836.768 447.329 836.768ZM447.329 826.016C451.681 826.016 455.564 825.035 458.977 823.072C462.476 821.109 465.206 818.336 467.169 814.752C469.132 811.083 470.113 806.859 470.113 802.08C470.113 797.216 469.132 793.035 467.169 789.536C465.206 785.952 462.476 783.179 458.977 781.216C455.564 779.253 451.681 778.272 447.329 778.272C442.977 778.272 439.094 779.253 435.681 781.216C432.268 783.179 429.537 785.952 427.489 789.536C425.441 793.035 424.417 797.216 424.417 802.08C424.417 806.859 425.441 811.083 427.489 814.752C429.537 818.336 432.268 821.109 435.681 823.072C439.094 825.035 442.977 826.016 447.329 826.016ZM511.984 836L486.768 768.16L498.416 768.16L520.816 829.6L515.312 829.6L538.608 768.16L548.976 768.16L571.76 829.6L566.384 829.6L589.296 768.16L600.304 768.16L574.96 836L563.184 836L541.808 779.936L545.392 779.936L523.76 836L511.984 836ZM640.421 836L600.997 746.4L614.821 746.4L651.045 829.088L643.109 829.088L679.589 746.4L692.389 746.4L653.093 836L640.421 836ZM702.023 836L702.023 768.16L714.311 768.16L714.311 836L702.023 836ZM708.167 755.104C705.778 755.104 703.772 754.336 702.151 752.8C700.615 751.264 699.847 749.387 699.847 747.168C699.847 744.864 700.615 742.944 702.151 741.408C703.772 739.872 705.778 739.104 708.167 739.104C710.556 739.104 712.519 739.872 714.055 741.408C715.676 742.859 716.487 744.693 716.487 746.912C716.487 749.216 715.719 751.179 714.183 752.8C712.647 754.336 710.642 755.104 708.167 755.104ZM767.981 836.768C760.728 836.768 754.328 835.275 748.781 832.288C743.32 829.301 739.053 825.205 735.981 820C732.994 814.795 731.501 808.821 731.501 802.08C731.501 795.339 732.952 789.365 735.853 784.16C738.84 778.955 742.893 774.901 748.013 772C753.218 769.013 759.064 767.52 765.549 767.52C772.12 767.52 777.922 768.971 782.957 771.872C787.992 774.773 791.917 778.869 794.733 784.16C797.634 789.365 799.085 795.467 799.085 802.464C799.085 802.976 799.042 803.573 798.957 804.256C798.957 804.939 798.914 805.579 798.829 806.176L741.101 806.176L741.101 797.344L792.429 797.344L787.437 800.416C787.522 796.064 786.626 792.181 784.749 788.768C782.872 785.355 780.269 782.709 776.941 780.832C773.698 778.869 769.901 777.888 765.549 777.888C761.282 777.888 757.485 778.869 754.157 780.832C750.829 782.709 748.226 785.397 746.349 788.896C744.472 792.309 743.533 796.235 743.533 800.672L743.533 802.72C743.533 807.243 744.557 811.296 746.605 814.88C748.738 818.379 751.682 821.109 755.437 823.072C759.192 825.035 763.501 826.016 768.365 826.016C772.376 826.016 776.002 825.333 779.245 823.968C782.573 822.603 785.474 820.555 787.949 817.824L794.733 825.76C791.661 829.344 787.821 832.075 783.213 833.952C778.69 835.829 773.613 836.768 767.981 836.768Z" fill="#515151"/>
</g>
<defs>
<filter id="filter0_d_49_4" x="269.244" y="734.204" width="538.741" height="115.72" filterUnits="userSpaceOnUse" color-interpolation-filters="sRGB">
<feFlood flood-opacity="0" result="BackgroundImageFix"/>
<feColorMatrix in="SourceAlpha" type="matrix" values="0 0 0 0 0 0 0 0 0 0 0 0 0 0 0 0 0 0 127 0" result="hardAlpha"/>
<feOffset dy="4"/>
<feGaussianBlur stdDeviation="4.45"/>
<feComposite in2="hardAlpha" operator="out"/>
<feColorMatrix type="matrix" values="0 0 0 0 0.831373 0 0 0 0 0.937255 0 0 0 0 0.87451 0 0 0 0.67 0"/>
<feBlend mode="normal" in2="BackgroundImageFix" result="effect1_dropShadow_49_4"/>
<feBlend mode="normal" in="SourceGraphic" in2="effect1_dropShadow_49_4" result="shape"/>
</filter>
</defs>
</svg>
