<svg width="2981" height="1077" viewBox="0 0 2981 1077" fill="none" xmlns="http://www.w3.org/2000/svg">
<path d="M0 0H2981V1077H0V0Z" fill="#0E233B"/>
<path d="M550.96 495.529C716.647 -146.917 111.925 491.548 283.305 629.807C286.652 632.507 291.638 631.669 294.623 628.573C312.819 609.697 342.592 606.567 364.483 622.344C386.288 638.059 392.771 667.127 380.811 690.315C378.784 694.246 379.537 699.231 383.128 701.812L440.165 742.799C443.749 745.375 448.704 744.507 451.784 741.345C469.997 722.651 499.634 719.602 521.446 735.321C543.265 751.046 549.742 780.142 537.75 803.338C535.728 807.248 536.539 812.308 540.306 814.585C690.16 905.157 980.036 494.026 895.455 405.176C823.57 329.663 626.1 460.81 563.705 505.516C557.463 509.988 549.043 502.964 550.96 495.529Z" fill="#FF0000"/>
<path d="M550.96 495.529C716.647 -146.917 111.925 491.548 283.305 629.807C286.652 632.507 291.638 631.669 294.623 628.573C312.819 609.697 342.592 606.567 364.483 622.344C386.288 638.059 392.771 667.127 380.811 690.315C378.784 694.246 379.537 699.231 383.128 701.812L440.165 742.799C443.749 745.375 448.704 744.507 451.784 741.345C469.997 722.651 499.634 719.602 521.446 735.321C543.265 751.046 549.742 780.142 537.75 803.338C535.728 807.248 536.539 812.308 540.306 814.585C690.16 905.157 980.036 494.026 895.455 405.176C823.57 329.663 626.1 460.81 563.705 505.516C557.463 509.988 549.043 502.964 550.96 495.529Z" fill="url(#paint0_linear_49_6)"/>
<path d="M550.96 495.529C716.647 -146.917 111.925 491.548 283.305 629.807C286.652 632.507 291.638 631.669 294.623 628.573C312.819 609.697 342.592 606.567 364.483 622.344C386.288 638.059 392.771 667.127 380.811 690.315C378.784 694.246 379.537 699.231 383.128 701.812L440.165 742.799C443.749 745.375 448.704 744.507 451.784 741.345C469.997 722.651 499.634 719.602 521.446 735.321C543.265 751.046 549.742 780.142 537.75 803.338C535.728 807.248 536.539 812.308 540.306 814.585C690.16 905.157 980.036 494.026 895.455 405.176C823.57 329.663 626.1 460.81 563.705 505.516C557.463 509.988 549.043 502.964 550.96 495.529Z" stroke="black" stroke-width="2"/>
<path d="M508.849 579.992C510.786 581.9 514.003 582.453 518.143 582.018C522.307 581.58 527.54 580.13 533.662 577.86C545.911 573.317 561.83 565.446 580.091 555.628C598.238 545.871 618.718 534.178 640.236 521.894L640.656 521.654C662.33 509.28 685.048 496.314 707.499 484.119C752.419 459.719 796.215 438.438 828.409 431.145C844.52 427.495 857.608 427.378 866.472 432.005C875.266 436.595 880.047 445.944 879.345 461.645C877.938 493.141 862.761 528.644 840.344 563.998C817.934 599.341 788.323 634.483 758.115 665.247C727.908 696.01 697.119 722.382 672.364 740.185C659.984 749.089 649.127 755.84 640.614 759.927C636.357 761.971 632.705 763.34 629.754 763.983C626.781 764.631 624.62 764.521 623.259 763.744C621.982 763.014 621.398 761.54 621.617 759.143C621.835 756.748 622.851 753.58 624.585 749.724C628.049 742.023 634.301 731.739 642.407 719.708C656.414 698.922 675.902 672.999 695.953 646.328C699.105 642.135 702.271 637.924 705.432 633.712C728.691 602.712 751.67 571.632 766.71 547.309C774.226 535.153 779.781 524.652 782.39 516.676C783.692 512.692 784.277 509.289 783.97 506.603C783.66 503.887 782.43 501.877 780.118 500.8C777.879 499.757 774.886 499.478 771.286 499.812C767.678 500.148 763.409 501.104 758.581 502.582C748.925 505.539 736.972 510.604 723.492 517.054C698.386 529.069 667.919 545.924 637.024 563.016C634.74 564.279 632.454 565.544 630.168 566.808C596.939 585.18 563.637 603.433 536.329 615.892C522.674 622.122 510.538 626.894 500.671 629.509C495.738 630.817 491.388 631.581 487.708 631.723C484.024 631.866 481.053 631.383 478.846 630.237C474.438 627.947 471.502 622.118 469.803 613.39C468.112 604.698 467.677 593.294 468.126 580.095C469.023 553.701 473.445 520.247 478.302 487.215C479.533 478.844 480.792 470.501 482.028 462.307C485.668 438.18 489.113 415.351 491.07 396.959C492.38 384.643 493.027 374.285 492.614 366.846C492.408 363.13 491.935 360.106 491.129 357.919C490.327 355.744 489.143 354.269 487.435 353.914C485.866 353.588 484.055 353.805 482.051 354.458C480.044 355.112 477.81 356.214 475.375 357.697C470.507 360.663 464.782 365.189 458.393 370.835C446.448 381.388 432.117 395.91 416.633 411.601C415.55 412.698 414.461 413.801 413.367 414.909C396.626 431.866 378.652 449.946 360.927 465.758C343.196 481.574 325.741 495.094 310.04 502.947C308.087 503.924 306.426 504.589 305.039 504.971C303.646 505.354 302.562 505.442 301.748 505.298C300.953 505.157 300.417 504.797 300.071 504.25C299.714 503.685 299.525 502.866 299.551 501.758C299.604 499.535 300.513 496.361 302.226 492.349C303.933 488.35 306.416 483.569 309.57 478.15C322.185 456.467 345.435 424.72 372.206 392.395C398.975 360.072 429.242 327.195 455.882 303.249C469.204 291.274 481.603 281.547 492.194 275.238C497.489 272.084 502.317 269.793 506.571 268.5C510.829 267.206 514.471 266.924 517.418 267.735C523.308 269.355 527.27 274.848 529.669 283.548C532.064 292.234 532.857 303.979 532.513 317.833C531.824 345.534 526.595 381.51 520.707 417.973C519.401 426.061 518.062 434.172 516.734 442.222C512.077 470.445 507.546 497.905 504.979 520.9C503.329 535.676 502.487 548.633 502.947 558.779C503.177 563.851 503.734 568.238 504.685 571.806C505.635 575.368 506.99 578.159 508.849 579.992Z" fill="#E5E1F3" stroke="#BBBBBB"/>
<g filter="url(#filter0_d_49_6)">
<path d="M1180.03 695.44C1156.81 695.44 1135.45 691.713 1115.96 684.26C1096.47 676.52 1079.55 665.77 1065.22 652.01C1050.89 637.963 1039.71 621.623 1031.68 602.99C1023.65 584.357 1019.64 563.86 1019.64 541.5C1019.64 519.14 1023.65 498.643 1031.68 480.01C1039.71 461.377 1050.89 445.18 1065.22 431.42C1079.84 417.373 1096.9 406.623 1116.39 399.17C1135.88 391.43 1157.38 387.56 1180.89 387.56C1204.68 387.56 1226.47 391.43 1246.25 399.17C1266.03 406.91 1282.8 418.52 1296.56 434L1269.9 460.66C1257.57 448.62 1244.1 439.877 1229.48 434.43C1215.15 428.697 1199.52 425.83 1182.61 425.83C1165.41 425.83 1149.36 428.697 1134.45 434.43C1119.83 440.163 1107.07 448.19 1096.18 458.51C1085.57 468.83 1077.26 481.157 1071.24 495.49C1065.51 509.537 1062.64 524.873 1062.64 541.5C1062.64 557.84 1065.51 573.177 1071.24 587.51C1077.26 601.557 1085.57 613.883 1096.18 624.49C1107.07 634.81 1119.83 642.837 1134.45 648.57C1149.07 654.303 1164.98 657.17 1182.18 657.17C1198.23 657.17 1213.57 654.733 1228.19 649.86C1243.1 644.7 1256.86 636.243 1269.47 624.49L1293.98 657.17C1279.07 669.783 1261.59 679.387 1241.52 685.98C1221.74 692.287 1201.24 695.44 1180.03 695.44ZM1252.7 651.58L1252.7 539.78L1293.98 539.78L1293.98 657.17L1252.7 651.58ZM1370.29 692L1370.29 372.94L1411.57 372.94L1411.57 692L1370.29 692ZM1588 694.58C1565.06 694.58 1544.71 689.563 1526.94 679.53C1509.16 669.497 1495.12 655.737 1484.8 638.25C1474.48 620.477 1469.32 600.41 1469.32 578.05C1469.32 555.403 1474.48 535.337 1484.8 517.85C1495.12 500.363 1509.16 486.747 1526.94 477C1544.71 466.967 1565.06 461.95 1588 461.95C1610.64 461.95 1630.85 466.967 1648.63 477C1666.69 486.747 1680.73 500.363 1690.77 517.85C1701.09 535.05 1706.25 555.117 1706.25 578.05C1706.25 600.697 1701.09 620.763 1690.77 638.25C1680.73 655.737 1666.69 669.497 1648.63 679.53C1630.85 689.563 1610.64 694.58 1588 694.58ZM1588 658.46C1602.62 658.46 1615.66 655.163 1627.13 648.57C1638.88 641.977 1648.05 632.66 1654.65 620.62C1661.24 608.293 1664.54 594.103 1664.54 578.05C1664.54 561.71 1661.24 547.663 1654.65 535.91C1648.05 523.87 1638.88 514.553 1627.13 507.96C1615.66 501.367 1602.62 498.07 1588 498.07C1573.38 498.07 1560.33 501.367 1548.87 507.96C1537.4 514.553 1528.23 523.87 1521.35 535.91C1514.47 547.663 1511.03 561.71 1511.03 578.05C1511.03 594.103 1514.47 608.293 1521.35 620.62C1528.23 632.66 1537.4 641.977 1548.87 648.57C1560.33 655.163 1573.38 658.46 1588 658.46ZM1805.2 692L1720.49 464.1L1759.62 464.1L1834.87 670.5L1816.38 670.5L1894.64 464.1L1929.47 464.1L2006.01 670.5L1987.95 670.5L2064.92 464.1L2101.9 464.1L2016.76 692L1977.2 692L1905.39 503.66L1917.43 503.66L1844.76 692L1805.2 692ZM2236.66 692L2104.22 391L2150.66 391L2272.35 668.78L2245.69 668.78L2368.24 391L2411.24 391L2279.23 692L2236.66 692ZM2443.61 692L2443.61 464.1L2484.89 464.1L2484.89 692L2443.61 692ZM2464.25 420.24C2456.22 420.24 2449.49 417.66 2444.04 412.5C2438.88 407.34 2436.3 401.033 2436.3 393.58C2436.3 385.84 2438.88 379.39 2444.04 374.23C2449.49 369.07 2456.22 366.49 2464.25 366.49C2472.28 366.49 2478.87 369.07 2484.03 374.23C2489.48 379.103 2492.2 385.267 2492.2 392.72C2492.2 400.46 2489.62 407.053 2484.46 412.5C2479.3 417.66 2472.56 420.24 2464.25 420.24ZM2665.19 694.58C2640.82 694.58 2619.32 689.563 2600.69 679.53C2582.34 669.497 2568.01 655.737 2557.69 638.25C2547.65 620.763 2542.64 600.697 2542.64 578.05C2542.64 555.403 2547.51 535.337 2557.26 517.85C2567.29 500.363 2580.91 486.747 2598.11 477C2615.59 466.967 2635.23 461.95 2657.02 461.95C2679.09 461.95 2698.58 466.823 2715.5 476.57C2732.41 486.317 2745.6 500.077 2755.06 517.85C2764.8 535.337 2769.68 555.833 2769.68 579.34C2769.68 581.06 2769.53 583.067 2769.25 585.36C2769.25 587.653 2769.1 589.803 2768.82 591.81L2574.89 591.81L2574.89 562.14L2747.32 562.14L2730.55 572.46C2730.83 557.84 2727.82 544.797 2721.52 533.33C2715.21 521.863 2706.47 512.977 2695.29 506.67C2684.39 500.077 2671.64 496.78 2657.02 496.78C2642.68 496.78 2629.93 500.077 2618.75 506.67C2607.57 512.977 2598.82 522.007 2592.52 533.76C2586.21 545.227 2583.06 558.413 2583.06 573.32L2583.06 580.2C2583.06 595.393 2586.5 609.01 2593.38 621.05C2600.54 632.803 2610.43 641.977 2623.05 648.57C2635.66 655.163 2650.14 658.46 2666.48 658.46C2679.95 658.46 2692.13 656.167 2703.03 651.58C2714.21 646.993 2723.95 640.113 2732.27 630.94L2755.06 657.6C2744.74 669.64 2731.84 678.813 2716.36 685.12C2701.16 691.427 2684.11 694.58 2665.19 694.58Z" fill="#D6EAF8"/>
</g>
<defs>
<filter id="filter0_d_49_6" x="1010.74" y="361.59" width="1767.84" height="346.75" filterUnits="userSpaceOnUse" color-interpolation-filters="sRGB">
<feFlood flood-opacity="0" result="BackgroundImageFix"/>
<feColorMatrix in="SourceAlpha" type="matrix" values="0 0 0 0 0 0 0 0 0 0 0 0 0 0 0 0 0 0 127 0" result="hardAlpha"/>
<feOffset dy="4"/>
<feGaussianBlur stdDeviation="4.45"/>
<feComposite in2="hardAlpha" operator="out"/>
<feColorMatrix type="matrix" values="0 0 0 0 0.831373 0 0 0 0 0.937255 0 0 0 0 0.87451 0 0 0 0.67 0"/>
<feBlend mode="normal" in2="BackgroundImageFix" result="effect1_dropShadow_49_6"/>
<feBlend mode="normal" in="SourceGraphic" in2="effect1_dropShadow_49_6" result="shape"/>
</filter>
<linearGradient id="paint0_linear_49_6" x1="485.19" y1="222.181" x2="681.865" y2="802.584" gradientUnits="userSpaceOnUse">
<stop stop-color="#E6E1F3" stop-opacity="0"/>
<stop offset="0.0001" stop-color="#C8A6EA" stop-opacity="0.94"/>
<stop offset="1" stop-color="#FC9CFA" stop-opacity="0.25"/>
</linearGradient>
</defs>
</svg>
