<svg width="2700" height="971" viewBox="0 0 2700 971" fill="none" xmlns="http://www.w3.org/2000/svg">
<path d="M462.96 468.529C628.647 -173.917 23.9247 464.548 195.305 602.807C198.652 605.507 203.638 604.669 206.623 601.573C224.819 582.697 254.592 579.567 276.482 595.344C298.287 611.059 304.771 640.127 292.811 663.315C290.783 667.246 291.536 672.231 295.128 674.812L352.165 715.799C355.749 718.375 360.704 717.507 363.784 714.345C381.997 695.651 411.634 692.602 433.445 708.321C455.265 724.046 461.742 753.142 449.75 776.338C447.728 780.248 448.538 785.308 452.306 787.585C602.159 878.157 892.036 467.026 807.454 378.176C735.57 302.663 538.1 433.81 475.704 478.516C469.462 482.988 461.042 475.964 462.96 468.529Z" fill="#FF0000"/>
<path d="M462.96 468.529C628.647 -173.917 23.9247 464.548 195.305 602.807C198.652 605.507 203.638 604.669 206.623 601.573C224.819 582.697 254.592 579.567 276.482 595.344C298.287 611.059 304.771 640.127 292.811 663.315C290.783 667.246 291.536 672.231 295.128 674.812L352.165 715.799C355.749 718.375 360.704 717.507 363.784 714.345C381.997 695.651 411.634 692.602 433.445 708.321C455.265 724.046 461.742 753.142 449.75 776.338C447.728 780.248 448.538 785.308 452.306 787.585C602.159 878.157 892.036 467.026 807.454 378.176C735.57 302.663 538.1 433.81 475.704 478.516C469.462 482.988 461.042 475.964 462.96 468.529Z" fill="url(#paint0_linear_40_34)"/>
<path d="M462.96 468.529C628.647 -173.917 23.9247 464.548 195.305 602.807C198.652 605.507 203.638 604.669 206.623 601.573C224.819 582.697 254.592 579.567 276.482 595.344C298.287 611.059 304.771 640.127 292.811 663.315C290.783 667.246 291.536 672.231 295.128 674.812L352.165 715.799C355.749 718.375 360.704 717.507 363.784 714.345C381.997 695.651 411.634 692.602 433.445 708.321C455.265 724.046 461.742 753.142 449.75 776.338C447.728 780.248 448.538 785.308 452.306 787.585C602.159 878.157 892.036 467.026 807.454 378.176C735.57 302.663 538.1 433.81 475.704 478.516C469.462 482.988 461.042 475.964 462.96 468.529Z" stroke="black" stroke-width="2"/>
<path d="M420.849 552.992C422.786 554.9 426.003 555.453 430.143 555.018C434.307 554.58 439.54 553.13 445.662 550.86C457.911 546.317 473.83 538.446 492.091 528.628C510.238 518.871 530.718 507.178 552.236 494.894L552.656 494.654C574.33 482.28 597.048 469.314 619.499 457.119C664.419 432.719 708.215 411.438 740.409 404.145C756.52 400.495 769.608 400.378 778.472 405.005C787.266 409.595 792.047 418.944 791.345 434.645C789.938 466.141 774.761 501.644 752.344 536.998C729.934 572.341 700.323 607.483 670.115 638.247C639.908 669.01 609.119 695.382 584.364 713.185C571.984 722.089 561.127 728.84 552.614 732.927C548.357 734.971 544.705 736.34 541.754 736.983C538.781 737.631 536.62 737.521 535.259 736.744C533.982 736.014 533.398 734.54 533.617 732.143C533.835 729.748 534.851 726.58 536.585 722.724C540.049 715.023 546.301 704.739 554.407 692.708C568.414 671.922 587.902 645.999 607.953 619.328C611.105 615.135 614.271 610.924 617.432 606.712C640.691 575.712 663.67 544.632 678.71 520.309C686.226 508.153 691.781 497.652 694.39 489.676C695.692 485.692 696.277 482.289 695.97 479.603C695.66 476.887 694.43 474.877 692.118 473.8C689.879 472.757 686.886 472.478 683.286 472.812C679.678 473.148 675.409 474.104 670.581 475.582C660.925 478.539 648.972 483.604 635.492 490.054C610.386 502.069 579.919 518.924 549.024 536.016C546.74 537.279 544.454 538.544 542.168 539.808C508.939 558.18 475.637 576.433 448.329 588.892C434.674 595.122 422.538 599.894 412.671 602.509C407.738 603.817 403.388 604.581 399.708 604.723C396.024 604.866 393.053 604.383 390.846 603.237C386.438 600.947 383.502 595.118 381.803 586.39C380.112 577.698 379.677 566.294 380.126 553.095C381.023 526.701 385.445 493.247 390.302 460.215C391.533 451.844 392.792 443.501 394.028 435.307C397.668 411.18 401.113 388.351 403.07 369.959C404.38 357.643 405.027 347.285 404.614 339.846C404.408 336.13 403.935 333.106 403.129 330.919C402.327 328.744 401.143 327.269 399.435 326.914C397.866 326.588 396.055 326.805 394.051 327.458C392.044 328.112 389.81 329.214 387.375 330.697C382.507 333.663 376.782 338.189 370.393 343.835C358.448 354.388 344.117 368.91 328.633 384.601C327.55 385.698 326.461 386.801 325.367 387.909C308.626 404.866 290.652 422.946 272.927 438.758C255.196 454.574 237.741 468.094 222.04 475.947C220.087 476.924 218.426 477.589 217.039 477.971C215.646 478.354 214.562 478.442 213.748 478.298C212.953 478.157 212.417 477.797 212.071 477.25C211.714 476.685 211.525 475.866 211.551 474.758C211.604 472.535 212.513 469.361 214.226 465.349C215.933 461.35 218.416 456.569 221.57 451.15C234.185 429.467 257.435 397.72 284.206 365.395C310.975 333.072 341.242 300.195 367.882 276.249C381.204 264.274 393.603 254.547 404.194 248.238C409.489 245.084 414.317 242.793 418.571 241.5C422.829 240.206 426.471 239.924 429.418 240.735C435.308 242.355 439.27 247.848 441.669 256.548C444.064 265.234 444.857 276.979 444.513 290.833C443.824 318.534 438.595 354.51 432.707 390.973C431.401 399.061 430.062 407.172 428.734 415.222C424.077 443.445 419.546 470.905 416.979 493.9C415.329 508.676 414.487 521.633 414.947 531.779C415.177 536.851 415.734 541.238 416.685 544.806C417.635 548.368 418.99 551.159 420.849 552.992Z" fill="#E5E1F3" stroke="#BBBBBB"/>
<g filter="url(#filter0_d_40_34)">
<path d="M1092.03 668.44C1068.81 668.44 1047.45 664.713 1027.96 657.26C1008.47 649.52 991.553 638.77 977.22 625.01C962.887 610.963 951.707 594.623 943.68 575.99C935.653 557.357 931.64 536.86 931.64 514.5C931.64 492.14 935.653 471.643 943.68 453.01C951.707 434.377 962.887 418.18 977.22 404.42C991.84 390.373 1008.9 379.623 1028.39 372.17C1047.88 364.43 1069.38 360.56 1092.89 360.56C1116.68 360.56 1138.47 364.43 1158.25 372.17C1178.03 379.91 1194.8 391.52 1208.56 407L1181.9 433.66C1169.57 421.62 1156.1 412.877 1141.48 407.43C1127.15 401.697 1111.52 398.83 1094.61 398.83C1077.41 398.83 1061.36 401.697 1046.45 407.43C1031.83 413.163 1019.07 421.19 1008.18 431.51C997.573 441.83 989.26 454.157 983.24 468.49C977.507 482.537 974.64 497.873 974.64 514.5C974.64 530.84 977.507 546.177 983.24 560.51C989.26 574.557 997.573 586.883 1008.18 597.49C1019.07 607.81 1031.83 615.837 1046.45 621.57C1061.07 627.303 1076.98 630.17 1094.18 630.17C1110.23 630.17 1125.57 627.733 1140.19 622.86C1155.1 617.7 1168.86 609.243 1181.47 597.49L1205.98 630.17C1191.07 642.783 1173.59 652.387 1153.52 658.98C1133.74 665.287 1113.24 668.44 1092.03 668.44ZM1164.7 624.58L1164.7 512.78L1205.98 512.78L1205.98 630.17L1164.7 624.58ZM1282.29 665L1282.29 345.94L1323.57 345.94L1323.57 665L1282.29 665ZM1500 667.58C1477.06 667.58 1456.71 662.563 1438.94 652.53C1421.16 642.497 1407.12 628.737 1396.8 611.25C1386.48 593.477 1381.32 573.41 1381.32 551.05C1381.32 528.403 1386.48 508.337 1396.8 490.85C1407.12 473.363 1421.16 459.747 1438.94 450C1456.71 439.967 1477.06 434.95 1500 434.95C1522.64 434.95 1542.85 439.967 1560.63 450C1578.69 459.747 1592.73 473.363 1602.77 490.85C1613.09 508.05 1618.25 528.117 1618.25 551.05C1618.25 573.697 1613.09 593.763 1602.77 611.25C1592.73 628.737 1578.69 642.497 1560.63 652.53C1542.85 662.563 1522.64 667.58 1500 667.58ZM1500 631.46C1514.62 631.46 1527.66 628.163 1539.13 621.57C1550.88 614.977 1560.05 605.66 1566.65 593.62C1573.24 581.293 1576.54 567.103 1576.54 551.05C1576.54 534.71 1573.24 520.663 1566.65 508.91C1560.05 496.87 1550.88 487.553 1539.13 480.96C1527.66 474.367 1514.62 471.07 1500 471.07C1485.38 471.07 1472.33 474.367 1460.87 480.96C1449.4 487.553 1440.23 496.87 1433.35 508.91C1426.47 520.663 1423.03 534.71 1423.03 551.05C1423.03 567.103 1426.47 581.293 1433.35 593.62C1440.23 605.66 1449.4 614.977 1460.87 621.57C1472.33 628.163 1485.38 631.46 1500 631.46ZM1717.2 665L1632.49 437.1L1671.62 437.1L1746.87 643.5L1728.38 643.5L1806.64 437.1L1841.47 437.1L1918.01 643.5L1899.95 643.5L1976.92 437.1L2013.9 437.1L1928.76 665L1889.2 665L1817.39 476.66L1829.43 476.66L1756.76 665L1717.2 665ZM2148.66 665L2016.22 364L2062.66 364L2184.35 641.78L2157.69 641.78L2280.24 364L2323.24 364L2191.23 665L2148.66 665ZM2355.61 665L2355.61 437.1L2396.89 437.1L2396.89 665L2355.61 665ZM2376.25 393.24C2368.22 393.24 2361.49 390.66 2356.04 385.5C2350.88 380.34 2348.3 374.033 2348.3 366.58C2348.3 358.84 2350.88 352.39 2356.04 347.23C2361.49 342.07 2368.22 339.49 2376.25 339.49C2384.28 339.49 2390.87 342.07 2396.03 347.23C2401.48 352.103 2404.2 358.267 2404.2 365.72C2404.2 373.46 2401.62 380.053 2396.46 385.5C2391.3 390.66 2384.56 393.24 2376.25 393.24ZM2577.19 667.58C2552.82 667.58 2531.32 662.563 2512.69 652.53C2494.34 642.497 2480.01 628.737 2469.69 611.25C2459.65 593.763 2454.64 573.697 2454.64 551.05C2454.64 528.403 2459.51 508.337 2469.26 490.85C2479.29 473.363 2492.91 459.747 2510.11 450C2527.59 439.967 2547.23 434.95 2569.02 434.95C2591.09 434.95 2610.58 439.823 2627.5 449.57C2644.41 459.317 2657.6 473.077 2667.06 490.85C2676.8 508.337 2681.68 528.833 2681.68 552.34C2681.68 554.06 2681.53 556.067 2681.25 558.36C2681.25 560.653 2681.1 562.803 2680.82 564.81L2486.89 564.81L2486.89 535.14L2659.32 535.14L2642.55 545.46C2642.83 530.84 2639.82 517.797 2633.52 506.33C2627.21 494.863 2618.47 485.977 2607.29 479.67C2596.39 473.077 2583.64 469.78 2569.02 469.78C2554.68 469.78 2541.93 473.077 2530.75 479.67C2519.57 485.977 2510.82 495.007 2504.52 506.76C2498.21 518.227 2495.06 531.413 2495.06 546.32L2495.06 553.2C2495.06 568.393 2498.5 582.01 2505.38 594.05C2512.54 605.803 2522.43 614.977 2535.05 621.57C2547.66 628.163 2562.14 631.46 2578.48 631.46C2591.95 631.46 2604.13 629.167 2615.03 624.58C2626.21 619.993 2635.95 613.113 2644.27 603.94L2667.06 630.6C2656.74 642.64 2643.84 651.813 2628.36 658.12C2613.16 664.427 2596.11 667.58 2577.19 667.58Z" fill="#0E233B"/>
</g>
<defs>
<filter id="filter0_d_40_34" x="922.74" y="330.59" width="1767.84" height="346.75" filterUnits="userSpaceOnUse" color-interpolation-filters="sRGB">
<feFlood flood-opacity="0" result="BackgroundImageFix"/>
<feColorMatrix in="SourceAlpha" type="matrix" values="0 0 0 0 0 0 0 0 0 0 0 0 0 0 0 0 0 0 127 0" result="hardAlpha"/>
<feOffset/>
<feGaussianBlur stdDeviation="4.45"/>
<feComposite in2="hardAlpha" operator="out"/>
<feColorMatrix type="matrix" values="0 0 0 0 0.831373 0 0 0 0 0.937255 0 0 0 0 0.87451 0 0 0 0.67 0"/>
<feBlend mode="normal" in2="BackgroundImageFix" result="effect1_dropShadow_40_34"/>
<feBlend mode="normal" in="SourceGraphic" in2="effect1_dropShadow_40_34" result="shape"/>
</filter>
<linearGradient id="paint0_linear_40_34" x1="397.19" y1="195.181" x2="593.865" y2="775.584" gradientUnits="userSpaceOnUse">
<stop stop-color="#E6E1F3" stop-opacity="0"/>
<stop offset="0.0001" stop-color="#C8A6EA" stop-opacity="0.94"/>
<stop offset="1" stop-color="#FC9CFA" stop-opacity="0.25"/>
</linearGradient>
</defs>
</svg>
