<svg width="32" height="34" viewBox="0 0 32 34" fill="none" xmlns="http://www.w3.org/2000/svg">
<path d="M14.7887 17.6824L13.5971 21.2924C13.5406 21.4646 13.5279 21.6471 13.56 21.8248C13.5922 22.0026 13.6683 22.1706 13.7821 22.3153C13.8959 22.4599 14.0442 22.5771 14.215 22.6572C14.3857 22.7373 14.5741 22.7781 14.7646 22.7763H16.5291C17.3572 22.7763 17.941 22.0224 17.6966 21.2913L16.5051 17.6812C16.2487 16.8829 15.0571 16.8829 14.7887 17.6812M12.538 24.2374C13.4371 24.6815 14.5083 24.9343 15.6469 24.9343C16.7975 24.9343 17.8567 24.6815 18.7558 24.2374C19.0639 24.0893 19.3937 24.4059 19.1999 24.6815C18.811 25.2356 18.2828 25.6898 17.6626 26.0032C17.0425 26.3167 16.3499 26.4796 15.6469 26.4774C14.9438 26.4796 14.2512 26.3167 13.6311 26.0032C13.011 25.6898 12.4828 25.2356 12.0938 24.6815C11.9013 24.4173 12.231 24.0893 12.538 24.2374ZM10.2812 15.2601C8.82003 15.2601 7.58513 16.2167 7.23969 17.5002C7.2175 17.5865 7.21644 17.6764 7.2366 17.7632C7.25676 17.8499 7.2976 17.9312 7.35601 18.0007C7.41441 18.0703 7.48884 18.1263 7.5736 18.1645C7.65837 18.2026 7.75123 18.222 7.84511 18.221H8.80799C8.72629 17.9398 8.71431 17.6444 8.773 17.3581C8.83169 17.0717 8.95945 16.802 9.14634 16.5701C9.33323 16.3381 9.5742 16.15 9.85048 16.0206C10.1268 15.8912 10.4309 15.8238 10.7392 15.8238C11.0475 15.8238 11.3516 15.8912 11.6279 16.0206C11.9042 16.15 12.1451 16.3381 12.332 16.5701C12.5189 16.802 12.6467 17.0717 12.7054 17.3581C12.764 17.6444 12.7521 17.9398 12.6704 18.221H12.8485C12.9242 18.2215 12.999 18.2062 13.0678 18.1762C13.1365 18.1462 13.1974 18.1022 13.2461 18.0474C13.2948 17.9926 13.3302 17.9283 13.3496 17.8591C13.3691 17.7899 13.3723 17.7175 13.3588 17.6471C13.216 16.9742 12.8314 16.3688 12.2704 15.9337C11.7094 15.4986 11.0066 15.2606 10.2812 15.2601ZM21.0126 15.2601C22.4737 15.2601 23.7086 16.2167 24.0541 17.5002C24.0763 17.5865 24.0773 17.6764 24.0572 17.7632C24.037 17.8499 23.9962 17.9312 23.9378 18.0007C23.8794 18.0703 23.8049 18.1263 23.7202 18.1645C23.6354 18.2026 23.5425 18.222 23.4487 18.221H22.4858C22.5683 17.939 22.5807 17.6428 22.5219 17.3555C22.4632 17.0682 22.335 16.7977 22.1473 16.5652C21.9595 16.3326 21.7175 16.1444 21.44 16.0152C21.1625 15.886 20.8572 15.8193 20.548 15.8204C20.2848 15.8192 20.0241 15.8675 19.7808 15.9624C19.5376 16.0574 19.3167 16.1971 19.131 16.3735C18.9453 16.55 18.7986 16.7595 18.6992 16.9901C18.5999 17.2206 18.55 17.4676 18.5524 17.7165C18.5524 17.8957 18.5765 18.0639 18.6246 18.221H18.4453C18.3696 18.2215 18.2947 18.2062 18.226 18.1762C18.1573 18.1462 18.0964 18.1022 18.0477 18.0474C17.999 17.9926 17.9636 17.9283 17.9441 17.8591C17.9246 17.7899 17.9215 17.7175 17.9349 17.6471C18.0757 16.9732 18.4596 16.3666 19.0211 15.9311C19.5826 15.4957 20.2866 15.2584 21.0126 15.2601Z" fill="#0E223B"/>
<path d="M10.7446 16.6392C10.9413 16.6387 11.1347 16.6864 11.3062 16.7776C11.4776 16.8688 11.6212 17.0004 11.7229 17.1596C11.8247 17.3188 11.8812 17.5003 11.8869 17.6862C11.8927 17.8722 11.8474 18.0565 11.7556 18.221H9.73479C9.65098 18.0646 9.60649 17.8919 9.6048 17.7165C9.6048 17.5207 9.66017 17.3362 9.75766 17.1779C9.79919 17.2398 9.86098 17.2871 9.93361 17.3127C10.0062 17.3383 10.0857 17.3407 10.1599 17.3195C10.2341 17.2983 10.2989 17.2548 10.3445 17.1955C10.3901 17.1362 10.414 17.0644 10.4124 16.9911C10.4126 16.9416 10.4014 16.8926 10.3796 16.8476C10.3577 16.8025 10.3258 16.7625 10.286 16.7303C10.4306 16.6703 10.5868 16.6393 10.7446 16.6392ZM19.5875 17.1187C19.4619 17.2954 19.3948 17.5036 19.3949 17.7165C19.3949 17.8953 19.4431 18.0639 19.5273 18.221H21.547C21.6558 18.0265 21.6992 17.8051 21.6712 17.5865C21.6431 17.368 21.5451 17.1628 21.3902 16.9985C21.2353 16.8342 21.031 16.7187 20.8047 16.6675C20.5784 16.6163 20.341 16.6319 20.1243 16.7121C20.1867 16.7538 20.2335 16.8131 20.2579 16.8815C20.2824 16.9499 20.2834 17.0239 20.2607 17.0929C20.2379 17.1618 20.1927 17.2222 20.1314 17.2653C20.0702 17.3084 19.996 17.332 19.9197 17.3328C19.8481 17.3322 19.7784 17.3116 19.7192 17.2735C19.6601 17.2354 19.6142 17.1815 19.5875 17.1187ZM22.481 11.8243C23.1731 12.0304 23.6304 12.3744 24.024 12.6978C24.1485 12.8005 24.2248 12.9458 24.2361 13.1017C24.2474 13.2576 24.1927 13.4113 24.0842 13.5291C23.9757 13.6469 23.8221 13.7191 23.6573 13.7298C23.4926 13.7404 23.33 13.6888 23.2056 13.5861C22.8529 13.2945 22.552 13.0804 22.1067 12.9483C21.6517 12.8117 20.9909 12.7479 19.9113 12.872C19.8292 12.8834 19.7455 12.8792 19.6652 12.8596C19.5849 12.84 19.5095 12.8053 19.4435 12.7578C19.3776 12.7102 19.3223 12.6506 19.281 12.5825C19.2397 12.5144 19.2133 12.4392 19.2031 12.3613C19.193 12.2834 19.1995 12.2043 19.2221 12.1288C19.2448 12.0533 19.2832 11.9828 19.335 11.9216C19.3869 11.8603 19.4511 11.8094 19.524 11.772C19.597 11.7346 19.6771 11.7113 19.7596 11.7036C20.9428 11.5669 21.7997 11.6216 22.481 11.8243ZM7.65977 12.675L7.65857 12.6773C7.52801 12.7729 7.44293 12.9136 7.42205 13.0686C7.40117 13.2235 7.4462 13.38 7.54724 13.5035C7.64827 13.627 7.79703 13.7075 7.96079 13.7273C8.12455 13.747 8.28989 13.7044 8.42045 13.6088L8.42647 13.6043L8.46258 13.5792C8.49869 13.5549 8.55485 13.5208 8.63108 13.4767C9.57085 12.9598 10.6635 12.7479 11.7424 12.8732C11.8236 12.8827 11.9059 12.8769 11.9847 12.8563C12.0636 12.8357 12.1373 12.8006 12.2018 12.753C12.2663 12.7054 12.3203 12.6463 12.3606 12.579C12.4009 12.5117 12.4268 12.4375 12.4369 12.3607C12.4469 12.2839 12.4409 12.206 12.4191 12.1314C12.3973 12.0568 12.3602 11.987 12.3099 11.926C12.2596 11.865 12.1971 11.814 12.126 11.7758C12.0548 11.7376 11.9764 11.7131 11.8953 11.7036C10.5413 11.5464 9.17032 11.8145 7.99317 12.4666C7.88918 12.526 7.78761 12.589 7.68866 12.6557L7.6694 12.6693L7.66218 12.6739L7.65977 12.675Z" fill="#0E223B"/>
<path d="M29.386 6.9126C28.758 5.86488 27.7463 5.07091 26.5419 4.68053C25.2793 4.27055 24.1961 3.48477 23.5064 2.4029C23.0442 1.67265 22.3904 1.06774 21.6085 0.646758C20.8266 0.225777 19.9431 0.00299702 19.0435 0C18.3165 0 17.6268 0.148046 16.9961 0.398585C16.1392 0.751617 15.1751 0.751617 14.3181 0.398585C13.6661 0.1399 12.9669 0.00449123 12.2599 0C10.3907 0 8.75985 0.933828 7.83066 2.33457C7.1082 3.43093 6.01314 4.26223 4.72536 4.69192C4.52797 4.75797 4.33298 4.81263 4.1392 4.86843C3.15345 5.14744 2.20982 5.41848 1.20361 6.9126C1.43481e-07 8.70054 -0.144433 10.7846 0.926777 12.2764C1.32036 12.8231 1.5346 13.4722 1.5346 14.1327L1.5358 14.8957C1.05117 15.3221 0.664656 15.8385 0.40041 16.4126C0.136164 16.9867 -0.000143212 17.6062 1.1291e-07 18.2324C1.1291e-07 19.5546 0.594581 20.7446 1.54543 21.5771C1.535 21.9711 1.52136 22.3656 1.50451 22.7603C1.50451 24.0518 2.61784 25.2487 3.90089 26.1005C4.48312 28.0957 5.74146 29.855 7.48268 31.1081C9.2239 32.3612 11.3517 33.0388 13.5394 33.037H17.7725C19.9628 33.0387 22.093 32.3592 23.8352 31.1032C25.5774 29.8472 26.835 28.0842 27.4145 26.0857C28.6892 25.2339 29.7893 24.0449 29.7893 22.7603L29.7868 21.5418C30.2627 21.1162 30.6418 20.6031 30.9009 20.0341C31.16 19.4651 31.2937 18.852 31.2938 18.2324C31.2937 17.6036 31.156 16.9816 30.8895 16.4055C30.6229 15.8295 30.2331 15.312 29.7447 14.8854V14.1327C29.7447 13.4722 29.959 12.8231 30.3513 12.2764C31.4827 10.739 30.4332 8.65499 29.386 6.9126ZM5.41623 12.8686C5.41623 9.53643 8.30368 6.83289 11.7833 6.83289H14.6395C14.6964 6.83376 14.7518 6.85056 14.7987 6.88115C14.8456 6.91175 14.8819 6.95479 14.9031 7.00485L14.9115 7.02535L14.9211 7.04585C15.4416 8.15679 16.2912 9.10118 17.3672 9.76472C18.4432 10.4283 19.6993 10.7825 20.9837 10.7846H24.0974C24.6074 10.8148 25.087 11.0246 25.4418 11.3725C25.7966 11.7205 26.001 12.1814 26.0147 12.6648L25.8149 15.817L26.8825 15.9867C27.4661 16.0795 27.9932 16.3724 28.363 16.8096C28.7327 17.2468 28.9194 17.7975 28.8872 18.3566C28.8551 18.9157 28.6064 19.444 28.1886 19.8406C27.7709 20.2372 27.2134 20.4743 26.6226 20.5066L25.5574 20.5647L25.2926 24.5551C25.0445 26.2751 24.1457 27.8515 22.7629 28.9924C21.3801 30.1332 19.6071 30.761 17.7725 30.7594H13.5406C11.7052 30.7615 9.93123 30.1336 8.54788 28.9923C7.16453 27.8509 6.26567 26.2736 6.01803 24.5528L5.7412 20.5624L4.67721 20.5055C4.09113 20.4733 3.53768 20.2396 3.12099 19.8483C2.7043 19.457 2.4531 18.9351 2.41465 18.3809C2.3762 17.8266 2.55315 17.2781 2.9122 16.8387C3.27126 16.3992 3.78767 16.099 4.36428 15.9947L4.66999 15.94L5.41623 15.8364V12.8686Z" fill="#0E223B"/>
</svg>
