<svg width="23" height="25" viewBox="0 0 23 25" fill="none" xmlns="http://www.w3.org/2000/svg">
<path d="M21.5625 0H18.6875C18.3063 0 17.9406 0.146394 17.671 0.406977C17.4015 0.66756 17.25 1.02099 17.25 1.38951V25H23V1.38951C23 1.02099 22.8486 0.66756 22.579 0.406977C22.3094 0.146394 21.9437 0 21.5625 0ZM12.9375 8.33704H10.0625C9.68125 8.33704 9.31562 8.48343 9.04603 8.74401C8.77645 9.0046 8.625 9.35802 8.625 9.72654V25H14.375V9.72654C14.375 9.35802 14.2235 9.0046 13.954 8.74401C13.6844 8.48343 13.3187 8.33704 12.9375 8.33704ZM4.3125 16.6741H1.4375C1.05625 16.6741 0.690617 16.8205 0.421034 17.0811C0.15145 17.3416 0 17.6951 0 18.0636V25H5.75V18.0636C5.75 17.6951 5.59855 17.3416 5.32897 17.0811C5.05938 16.8205 4.69375 16.6741 4.3125 16.6741Z" fill="#0E223B"/>
</svg>
